# xmcd
#
# Track frame offsets: 
#        150
#        19223
#        42996
#        59952
#        81080
#        98107
#        114980
#        132471
#        150134
#        166782
#
# Disc length: 2637 seconds
#
# Revision: 2
# Processed by: cddbd v1.5.2PL0 Copyright (c) Steve Scherf et al.
# Submitted via: ExactAudioCopy v1.0b3
#
DISCID=790a4b0a
DTITLE=Jennifer Hudson - JHud
DYEAR=2014
DGENRE=Soul
TTITLE0=Dangerous
TTITLE1=It's Your World (feat. R. Kelly)
TTITLE2=He Ain't Going Nowhere (feat. Iggy Azalea)
TTITLE3=Walk It Out (feat. Timbaland)
TTITLE4=I Can't Describe (The Way I Feel) (feat. T.I.)
TTITLE5=I Still Love You
TTITLE6=Just That Type Of Girl
TTITLE7=Bring Back The Music
TTITLE8=Say It
TTITLE9=Moan
EXTD=
EXTT0=
EXTT1=
EXTT2=
EXTT3=
EXTT4=
EXTT5=
EXTT6=
EXTT7=
EXTT8=
EXTT9=
PLAYORDER=
